HIERARCHY
ROOT hips
{
  OFFSET 0 10.6860622 2.3727825e-15
  CHANNELS 6 Xposition Yposition Zposition Yrotation Xrotation Zrotation
  JOINT leftUpperLeg
  {
    OFFSET 0.6642549969 -0.9402397400000004 0
    CHANNELS 3 Yrotation Xrotation Zrotation
    JOINT leftLowerLeg
    {
      OFFSET 0 -3.997221335632195 0
      CHANNELS 3 Yrotation Xrotation Zrotation
      JOINT leftFoot
      {
        OFFSET -0.13777839790000004 -4.6145792000000005 -0.22186036399999998
        CHANNELS 3 Yrotation Xrotation Zrotation
        JOINT leftToes
        {
          OFFSET -0.03777410834999995 -0.9130806927000008 0.85230013
          CHANNELS 3 Yrotation Xrotation Zrotation
          End Site
          {
            OFFSET -0.03777410834999995 -0.9130806927000008 0.85230013
          }
        }
      }
    }
  }
  JOINT rightUpperLeg
  {
    OFFSET -0.6642778626 -0.9402397400000004 0
    CHANNELS 3 Yrotation Xrotation Zrotation
    JOINT rightLowerLeg
    {
      OFFSET 0 -3.997221452859387 0
      CHANNELS 3 Yrotation Xrotation Zrotation
      JOINT rightFoot
      {
        OFFSET 0.1377926176 -4.6145792000000005 -0.22185782299999995
        CHANNELS 3 Yrotation Xrotation Zrotation
        JOINT rightToes
        {
          OFFSET 0.037780746850000047 -0.9130806927000008 0.85230167
          CHANNELS 3 Yrotation Xrotation Zrotation
          End Site
          {
            OFFSET 0.037780746850000047 -0.9130806927000008 0.85230167
          }
        }
      }
    }
  }
  JOINT spine
  {
    OFFSET 0 0.13988381660000015 0
    CHANNELS 3 Yrotation Xrotation Zrotation
    JOINT chest
    {
      OFFSET 0 0.6191039003973773 0
      CHANNELS 3 Yrotation Xrotation Zrotation
      JOINT upperChest
      {
        OFFSET 0 0.9855186130586943 0
        CHANNELS 3 Yrotation Xrotation Zrotation
        JOINT leftShoulder
        {
          OFFSET 0.1807663869 1.5087829790000005 0
          CHANNELS 3 Yrotation Xrotation Zrotation
          JOINT leftUpperArm
          {
            OFFSET 0.5985063006419806 0 0
            CHANNELS 3 Yrotation Xrotation Zrotation
            JOINT leftLowerArm
            {
              OFFSET 2.2993332369501065 0 0
              CHANNELS 3 Yrotation Xrotation Zrotation
              JOINT leftHand
              {
                OFFSET 2.395047042602395 0 0
                CHANNELS 3 Yrotation Xrotation Zrotation
                JOINT leftIndexProximal
                {
                  OFFSET 0.5766295810000004 0.04556643899499946 0.17265095988184
                  CHANNELS 3 Yrotation Xrotation Zrotation
                  JOINT leftIndexIntermediate
                  {
                    OFFSET 0.2957229000000008 -0.019352197700001517 -0.007932640616999987
                    CHANNELS 3 Yrotation Xrotation Zrotation
                    JOINT leftIndexDistal
                    {
                      OFFSET 0.19008243099999922 -0.012484908149998475 -0.002786250786000012
                      CHANNELS 3 Yrotation Xrotation Zrotation
                      End Site
                      {
                        OFFSET 0.19008243099999922 -0.012484908149998475 -0.002786250786000012
                      }
                    }
                  }
                }
                JOINT leftMiddleProximal
                {
                  OFFSET 0.5834975091000001 0.0524350405149987 0.02204081888183999
                  CHANNELS 3 Yrotation Xrotation Zrotation
                  JOINT leftMiddleIntermediate
                  {
                    OFFSET 0.33880573540000003 -0.019871473270000717 -0.00000971183179999946
                    CHANNELS 3 Yrotation Xrotation Zrotation
                    JOINT leftMiddleDistal
                    {
                      OFFSET 0.20676022730000088 -0.012221336379999448 0.0001471936708000235
                      CHANNELS 3 Yrotation Xrotation Zrotation
                      End Site
                      {
                        OFFSET 0.20676022730000088 -0.012221336379999448 0.0001471936708000235
                      }
                    }
                  }
                }
                JOINT leftLittleProximal
                {
                  OFFSET 0.5344154683999995 -0.012880921405001189 -0.24414037221816004
                  CHANNELS 3 Yrotation Xrotation Zrotation
                  JOINT leftLittleIntermediate
                  {
                    OFFSET 0.21758961730000093 -0.011650919939999227 0.011893592810000034
                    CHANNELS 3 Yrotation Xrotation Zrotation
                    JOINT leftLittleDistal
                    {
                      OFFSET 0.1475273964999999 -0.008152365682999818 0.006001092492999946
                      CHANNELS 3 Yrotation Xrotation Zrotation
                      End Site
                      {
                        OFFSET 0.1475273964999999 -0.008152365682999818 0.006001092492999946
                      }
                    }
                  }
                }
                JOINT leftRingProximal
                {
                  OFFSET 0.5799399463000003 0.026911854694997794 -0.12150566991816003
                  CHANNELS 3 Yrotation Xrotation Zrotation
                  JOINT leftRingIntermediate
                  {
                    OFFSET 0.26167887460000006 -0.013480186499999602 0.010996293000000053
                    CHANNELS 3 Yrotation Xrotation Zrotation
                    JOINT leftRingDistal
                    {
                      OFFSET 0.17667108799999987 -0.008990287899999228 0.0055541023999999065
                      CHANNELS 3 Yrotation Xrotation Zrotation
                      End Site
                      {
                        OFFSET 0.17667108799999987 -0.008990287899999228 0.0055541023999999065
                      }
                    }
                  }
                }
                JOINT leftThumbProximal
                {
                  OFFSET 0.11018806699999972 -0.09448718900500053 0.17047963138184
                  CHANNELS 3 Yrotation Xrotation Zrotation
                  JOINT leftThumbIntermediate
                  {
                    OFFSET 0.31062601459999983 -0.08126270900000132 0.15443142000000007
                    CHANNELS 3 Yrotation Xrotation Zrotation
                    JOINT leftThumbDistal
                    {
                      OFFSET 0.21627175790000086 -0.08833193599999878 0.018771167799999988
                      CHANNELS 3 Yrotation Xrotation Zrotation
                      End Site
                      {
                        OFFSET 0.21627175790000086 -0.08833193599999878 0.018771167799999988
                      }
                    }
                  }
                }
              }
            }
          }
        }
        JOINT neck
        {
          OFFSET 0 1.5463305265074576 0
          CHANNELS 3 Yrotation Xrotation Zrotation
          JOINT head
          {
            OFFSET 0 0.8456443600000344 0
            CHANNELS 3 Yrotation Xrotation Zrotation
            JOINT leftEye
            {
              OFFSET 0.30408573140000006 0.5104519199999995 0.1276382305
              CHANNELS 3 Yrotation Xrotation Zrotation
              End Site
              {
                OFFSET 0.30408573140000006 0.5104519199999995 0.1276382305
              }
            }
            JOINT rightEye
            {
              OFFSET -0.30409491089999996 0.5104519199999995 0.1276379445
              CHANNELS 3 Yrotation Xrotation Zrotation
              End Site
              {
                OFFSET -0.30409491089999996 0.5104519199999995 0.1276379445
              }
            }
            JOINT jaw
            {
              OFFSET -3.155239131000001e-7 -0.11984121820000082 0.60178107
              CHANNELS 3 Yrotation Xrotation Zrotation
              End Site
              {
                OFFSET -3.155239131000001e-7 -0.11984121820000082 0.60178107
              }
            }
          }
        }
        JOINT rightShoulder
        {
          OFFSET -0.1807303465 1.5087829790000005 0
          CHANNELS 3 Yrotation Xrotation Zrotation
          JOINT rightUpperArm
          {
            OFFSET -0.5985063796536958 0 0
            CHANNELS 3 Yrotation Xrotation Zrotation
            JOINT rightLowerArm
            {
              OFFSET -2.2993322059002854 0 0
              CHANNELS 3 Yrotation Xrotation Zrotation
              JOINT rightHand
              {
                OFFSET -2.395045314457259 0 0
                CHANNELS 3 Yrotation Xrotation Zrotation
                JOINT rightIndexProximal
                {
                  OFFSET -0.5764487688300002 0.0441371204405987 0.17361932004999997
                  CHANNELS 3 Yrotation Xrotation Zrotation
                  JOINT rightIndexIntermediate
                  {
                    OFFSET -0.29573011380000047 -0.01934826376999843 -0.007698921482999974
                    CHANNELS 3 Yrotation Xrotation Zrotation
                    JOINT rightIndexDistal
                    {
                      OFFSET -0.19008373999999884 -0.012503266380000655 -0.0026365778999999897
                      CHANNELS 3 Yrotation Xrotation Zrotation
                      End Site
                      {
                        OFFSET -0.19008373999999884 -0.012503266380000655 -0.0026365778999999897
                      }
                    }
                  }
                }
                JOINT rightMiddleProximal
                {
                  OFFSET -0.5834852037300005 0.05211639405060153 0.02307162440000001
                  CHANNELS 3 Yrotation Xrotation Zrotation
                  JOINT rightMiddleIntermediate
                  {
                    OFFSET -0.33880114510000003 -0.019952774050000954 0.0002455003561999819
                    CHANNELS 3 Yrotation Xrotation Zrotation
                    JOINT rightMiddleDistal
                    {
                      OFFSET -0.20675694929999955 -0.012273788999999091 0.00030209124000002766
                      CHANNELS 3 Yrotation Xrotation Zrotation
                      End Site
                      {
                        OFFSET -0.20675694929999955 -0.012273788999999091 0.00030209124000002766
                      }
                    }
                  }
                }
                JOINT rightLittleProximal
                {
                  OFFSET -0.5346811737299992 -0.011214256288399227 -0.24363941305000003
                  CHANNELS 3 Yrotation Xrotation Zrotation
                  JOINT rightLittleIntermediate
                  {
                    OFFSET -0.21757715980000092 -0.011771559690000988 0.01201554387
                    CHANNELS 3 Yrotation Xrotation Zrotation
                    JOINT rightLittleDistal
                    {
                      OFFSET -0.1475201849000004 -0.00822055339600003 0.006082065407000015
                      CHANNELS 3 Yrotation Xrotation Zrotation
                      End Site
                      {
                        OFFSET -0.1475201849000004 -0.00822055339600003 0.006082065407000015
                      }
                    }
                  }
                }
                JOINT rightRingProximal
                {
                  OFFSET -0.5800810755299999 0.027657985680600072 -0.12066365025000003
                  CHANNELS 3 Yrotation Xrotation Zrotation
                  JOINT rightRingIntermediate
                  {
                    OFFSET -0.26166445029999974 -0.013623118409999302 0.011164098990000045
                    CHANNELS 3 Yrotation Xrotation Zrotation
                    JOINT rightRingDistal
                    {
                      OFFSET -0.17666387530000027 -0.009072900100000503 0.005668185599999959
                      CHANNELS 3 Yrotation Xrotation Zrotation
                      End Site
                      {
                        OFFSET -0.17666387530000027 -0.009072900100000503 0.005668185599999959
                      }
                    }
                  }
                }
                JOINT rightThumbProximal
                {
                  OFFSET -0.10997596379000074 -0.09577489355940072 0.16989765924999997
                  CHANNELS 3 Yrotation Xrotation Zrotation
                  JOINT rightThumbIntermediate
                  {
                    OFFSET -0.31036620999999986 -0.08229339117999834 0.15440884469999996
                    CHANNELS 3 Yrotation Xrotation Zrotation
                    JOINT rightThumbDistal
                    {
                      OFFSET -0.21631306399999906 -0.08825326400000111 0.018656797720000014
                      CHANNELS 3 Yrotation Xrotation Zrotation
                      End Site
                      {
                        OFFSET -0.21631306399999906 -0.08825326400000111 0.018656797720000014
                      }
                    }
                  }
                }
              }
            }
          }
        }
      }
    }
  }
}
MOTION
Frames: 4
Frame Time: 0.03333333333333333
0.08148671686649323 -9.261986000468445 0.05862930789589882 -11.953624263204437 -31.457520116826583 -8.128773316600912 -144.00049754115264 -65.14308618122081 162.08177461194373 -98.88201408799334 85.50202698088022 -88.85756726937458 2.3875228635158465 40.38358627156483 0.6710430682427501 0.000004351364969306037 2.845902659859568 -0.000001000503072256685 -114.17514689253208 -25.84036027511997 53.67246733167103 172.78706846543278 53.184437856679466 -176.07501469030638 19.568861860010355 29.707959409112412 17.50333511808656 -0.000012122225627859544 3.4849499983430516 7.565379676319533e-7 1.3670619295373807 31.4590654804494 7.269150680587685 4.285013312448707 32.017833482832835 1.712598407226384 0 0 0 -33.27780768096674 9.49224707688765 3.366373347964107 -30.440344842311355 4.798820638573388 17.955606393536446 -88.03762886806331 0.7148201982898018 0.7397456711990744 -1.1245422991354292 18.172425766575692 -33.58530624517808 3.874378879874822 0.2940871188984347 -17.211566180199842 2.381993638299452 0.5870865368294892 -27.68919230883821 1.122970991824746 0.12452942767240614 -12.657192111753465 4.191299501738179 0.4037444943301746 -20.95967390531785 3.325273087606386 1.2246726379517425 -40.429376994508075 1.1229648031400097 0.12451851535221803 -12.657201275057519 4.934058748599884 0.7590014103630408 -30.167194734693492 3.5762676758625664 1.4531797144614753 -44.218640782267954 1.532004945194814 0.234297565903755 -17.392314517430023 4.803114126105981 0.68543319618108 -28.48961088349877 3.6050995422555414 1.481451774477585 -44.66922885763419 1.4477385958641835 0.2087116326012903 -16.407937785692194 3.898421367207112 14.131826921936584 2.5674521005322295 14.165888369909105 6.307528882451736 -0.9109611105534521 2.24919189172507 -7.2534585911718965 23.8631691576051 3.4751741064078034 -2.5295762801663932 0.02840155915385282 27.963642635055237 -20.226104225496652 -12.766236870343793 0 0 0 0 0 0 0 0 0 19.83057690061665 13.960381391090037 9.77308252508419 28.033628910548536 -9.297870146377162 12.583785112569828 66.17896105794861 0.4411999760920859 -0.6770570511935959 -4.078722641886711 1.608193392506071 -25.79561287659679 -4.566819378594421 0.783816776414252 35.64160423402792 -3.3797656074818314 1.9292451763707972 59.42775271270359 -0.013512834497481752 0.000029202234818977345 0.19727519086447398 -9.304154404514595 6.093458860627853 48.83032984138243 -2.116147241671806 0.6195462494888401 32.63411385126486 0.03853110818811103 0.00018979555169423964 -0.5626444374044461 -14.17663717524437 5.504790767149031 25.74513560980376 -2.000382681090474 0.5482270423936619 30.649381173031937 -0.7142191161938337 0.06555374203694773 10.489054119714941 -9.901368493399689 5.877847304710403 43.64932352288685 -2.100597449357778 0.609650710418374 32.36499285809466 -0.7155813024992482 0.06581229554941864 10.50918161836439 -4.52856334940368 -3.6332169575471744 -7.992274793033726 -29.39840432716813 4.221754213589924 12.597404319811579 -6.961324317651609 -5.318907952602503 -14.249234410374928
0.08190958201885223 -9.262119395663452 0.05858998745679855 -11.951578044700158 -31.469211065643364 -8.136771588266075 -143.99023250595036 -65.15221138097735 162.0644391464355 -98.8356896987198 85.48043601118133 -88.8102703624521 2.3895317425953584 40.36809798912148 0.6785026971091935 0.000002169171638002651 2.8499385232558403 0.000003365628246351104 -114.17397718206634 -25.83722795757413 53.65961291850463 172.79029505542746 53.1820899193619 -176.07667855943575 19.560705411948106 29.697017549933204 17.515091664618293 0.0000028436742627848124 3.4861586162567364 -0.0000025164127784941626 1.3639878751719126 31.464258249181913 7.267209976037365 4.28344887094554 32.02446749206061 1.7150512565712672 0 0 0 -33.27645218374459 9.49261843058272 3.366862116760336 -30.437629744880542 4.762335334063562 17.94941892624312 -88.03579582692342 0.71478801919132 0.7397378805575004 -1.121385403457151 18.216401285657103 -33.57448463009397 3.874378879874822 0.2940871188984347 -17.211566180199842 2.381993638299452 0.5870865368294892 -27.68919230883821 1.122970991824746 0.12452942767240614 -12.657192111753465 4.191299501738179 0.4037444943301746 -20.95967390531785 3.325273087606386 1.2246726379517425 -40.429376994508075 1.1229648031400097 0.12451851535221803 -12.657201275057519 4.934058748599884 0.7590014103630408 -30.167194734693492 3.5762676758625664 1.4531797144614753 -44.218640782267954 1.532004945194814 0.234297565903755 -17.392314517430023 4.803114126105981 0.68543319618108 -28.48961088349877 3.6050995422555414 1.481451774477585 -44.66922885763419 1.4477385958641835 0.2087116326012903 -16.407937785692194 3.898421367207112 14.131826921936584 2.5674521005322295 14.165888369909105 6.307528882451736 -0.9109611105534521 2.24919189172507 -7.2534585911718965 23.8631691576051 3.5014082468895262 -2.5303676459330156 0.03768180832428736 28.19307036007069 -20.246565153947092 -12.841645063409196 0 0 0 0 0 0 0 0 0 19.837109066737895 13.960318048429688 9.772694245716005 28.033963464799093 -9.30897180024833 12.570116343012478 66.16678348138961 0.441062140923826 -0.6770085611311923 -4.063798140604725 1.640188074374376 -25.754760529403427 -4.566819378594421 0.783816776414252 35.64160423402792 -3.3797656074818314 1.9292451763707972 59.42775271270359 -0.013512834497481752 0.000029202234818977345 0.19727519086447398 -9.304154404514595 6.093458860627853 48.83032984138243 -2.116147241671806 0.6195462494888401 32.63411385126486 0.03853110818811103 0.00018979555169423964 -0.5626444374044461 -14.17663717524437 5.504790767149031 25.74513560980376 -2.000382681090474 0.5482270423936619 30.649381173031937 -0.7142191161938337 0.06555374203694773 10.489054119714941 -9.901368493399689 5.877847304710403 43.64932352288685 -2.100597449357778 0.609650710418374 32.36499285809466 -0.7155813024992482 0.06581229554941864 10.50918161836439 -4.52856334940368 -3.6332169575471744 -7.992274793033726 -29.39840432716813 4.221754213589924 12.597404319811579 -6.961324317651609 -5.318907952602503 -14.249234410374928
0.0823228731751442 -9.262166960169983 0.05859896168112755 -11.94768621706068 -31.479826270451255 -8.144357784251172 -143.98541180936283 -65.16295762541309 162.0512522507651 -98.7734366293099 85.46170892367736 -88.74735625067584 2.3929783571609864 40.350856612198655 0.6896696969742692 -0.000001571189479925638 2.847761484675283 -0.000001119335282339094 -114.17915338106427 -25.83319837481903 53.647057339123634 172.79495067391807 53.17961674575256 -176.07877554946356 19.556756604708006 29.698277591924562 17.516897969837558 0.0000058752113544212155 3.4826786049002494 -0.000002920064252021719 1.3615404612806712 31.473123054974884 7.266691533797844 4.281926132909565 32.030441330999224 1.7166657357351827 0 0 0 -33.27910838482166 9.494326316511454 3.371409552680758 -30.432134347580703 4.725779146721607 17.942416459842665 -88.04043121288927 0.71485018942325 0.7397292895075142 -1.1166082212627946 18.238127125329544 -33.57197002156257 3.874378879874822 0.2940871188984347 -17.211566180199842 2.381993638299452 0.5870865368294892 -27.68919230883821 1.122970991824746 0.12452942767240614 -12.657192111753465 4.191299501738179 0.4037444943301746 -20.95967390531785 3.325273087606386 1.2246726379517425 -40.429376994508075 1.1229648031400097 0.12451851535221803 -12.657201275057519 4.934058748599884 0.7590014103630408 -30.167194734693492 3.5762676758625664 1.4531797144614753 -44.218640782267954 1.532004945194814 0.234297565903755 -17.392314517430023 4.803114126105981 0.68543319618108 -28.48961088349877 3.6050995422555414 1.481451774477585 -44.66922885763419 1.4477385958641835 0.2087116326012903 -16.407937785692194 3.898421367207112 14.131826921936584 2.5674521005322295 14.165888369909105 6.307528882451736 -0.9109611105534521 2.24919189172507 -7.2534585911718965 23.8631691576051 3.5321314163955644 -2.532013192602369 0.05319982691697542 28.476301668273088 -20.28000764125116 -12.952175662739284 0 0 0 0 0 0 0 0 0 19.847772780951583 13.95899841363146 9.778729436718836 28.034280983608607 -9.305687639626147 12.546477539991471 66.15250055084263 0.4408754791320865 -0.6769223868161994 -4.048067310053447 1.627390354324796 -25.738684547245516 -4.566819378594421 0.783816776414252 35.64160423402792 -3.3797656074818314 1.9292451763707972 59.42775271270359 -0.013512834497481752 0.000029202234818977345 0.19727519086447398 -9.304154404514595 6.093458860627853 48.83032984138243 -2.116147241671806 0.6195462494888401 32.63411385126486 0.03853110818811103 0.00018979555169423964 -0.5626444374044461 -14.17663717524437 5.504790767149031 25.74513560980376 -2.000382681090474 0.5482270423936619 30.649381173031937 -0.7142191161938337 0.06555374203694773 10.489054119714941 -9.901368493399689 5.877847304710403 43.64932352288685 -2.100597449357778 0.609650710418374 32.36499285809466 -0.7155813024992482 0.06581229554941864 10.50918161836439 -4.52856334940368 -3.6332169575471744 -7.992274793033726 -29.39840432716813 4.221754213589924 12.597404319811579 -6.961324317651609 -5.318907952602503 -14.249234410374928
0.08246862888336182 -9.26217041723938 0.05859116092324257 -11.945377511022263 -31.484323380071523 -8.148446259774545 -143.9828007091705 -65.16699875448192 162.04555759270545 -98.748996321848 85.45700685160061 -88.72233770513265 2.393919391325923 40.34735240558497 0.6925580895544025 0.00000890576839752776 2.8454363513224217 0.0000022499801517277294 -114.18230351596537 -25.831206400124223 53.64085093403987 172.79736802780056 53.17958825379992 -176.07891673553476 19.560318562072872 29.706046561906494 17.512015201034128 -0.000008951050635301248 3.4790940398579426 -0.00003391500544681665 1.3606113859864433 31.478068331772572 7.266512263775254 4.281321042855743 32.03302353573642 1.7172358107295842 0 0 0 -33.28153798397615 9.495221380251332 3.3738542167405217 -30.42883959522594 4.710602263190894 17.938992075473678 -88.04576971609939 0.7149130534011131 0.73972896934416 -1.1126930296697568 18.233591171523088 -33.569727288276574 3.874378879874822 0.2940871188984347 -17.211566180199842 2.381993638299452 0.5870865368294892 -27.68919230883821 1.122970991824746 0.12452942767240614 -12.657192111753465 4.191299501738179 0.4037444943301746 -20.95967390531785 3.325273087606386 1.2246726379517425 -40.429376994508075 1.1229648031400097 0.12451851535221803 -12.657201275057519 4.934058748599884 0.7590014103630408 -30.167194734693492 3.5762676758625664 1.4531797144614753 -44.218640782267954 1.532004945194814 0.234297565903755 -17.392314517430023 4.803114126105981 0.68543319618108 -28.48961088349877 3.6050995422555414 1.481451774477585 -44.66922885763419 1.4477385958641835 0.2087116326012903 -16.407937785692194 3.898421367207112 14.131826921936584 2.5674521005322295 14.165888369909105 6.307528882451736 -0.9109611105534521 2.24919189172507 -7.2534585911718965 23.8631691576051 3.544491411321836 -2.532611845648345 0.06251470878216084 28.59548343156604 -20.28756427928924 -13.002208102535997 0 0 0 0 0 0 0 0 0 19.854320996008266 13.958111623291376 9.782581798811893 28.033862919659608 -9.302356791681943 12.534682676203394 66.14609396692684 0.4407981569675824 -0.6768897442981877 -4.042132479587408 1.6151162866736384 -25.735726651861693 -4.566819378594421 0.783816776414252 35.64160423402792 -3.3797656074818314 1.9292451763707972 59.42775271270359 -0.013512834497481752 0.000029202234818977345 0.19727519086447398 -9.304154404514595 6.093458860627853 48.83032984138243 -2.116147241671806 0.6195462494888401 32.63411385126486 0.03853110818811103 0.00018979555169423964 -0.5626444374044461 -14.17663717524437 5.504790767149031 25.74513560980376 -2.000382681090474 0.5482270423936619 30.649381173031937 -0.7142191161938337 0.06555374203694773 10.489054119714941 -9.901368493399689 5.877847304710403 43.64932352288685 -2.100597449357778 0.609650710418374 32.36499285809466 -0.7155813024992482 0.06581229554941864 10.50918161836439 -4.52856334940368 -3.6332169575471744 -7.992274793033726 -29.39840432716813 4.221754213589924 12.597404319811579 -6.961324317651609 -5.318907952602503 -14.249234410374928
